<svg id="Ebene_1" data-name="Ebene 1" xmlns="http://www.w3.org/2000/svg" viewBox="0 0 25.05 24.15"><defs><style>.cls-1{fill:#ededed;stroke:#1d1d1b;stroke-miterlimit:10;stroke-width:0.25px;}.cls-2,.cls-3{font-size:12.5px;font-family:Haettenschweiler, Haettenschweiler;}.cls-2{fill:#fcbe00;}.cls-3{fill:#040806;}</style></defs><title>32x32_2</title><path class="cls-1" d="M21.82,16.17a6.76,6.76,0,0,0-1.67.21.35.35,0,0,1-.39-.24,5.37,5.37,0,0,0-5-2.69,5.41,5.41,0,0,0-4.92,2.62.35.35,0,0,1-.35.23,4,4,0,0,0-.53,0c-1.82,0-3.29,1.2-3.29,2.68h0a.54.54,0,0,1-.27.51c-1.64.66-2.73,1.88-2.73,3.27,0,2.09,2.47,3.79,5.52,3.79A7.54,7.54,0,0,0,10.89,26a.29.29,0,0,1,.31.06,6.7,6.7,0,0,0,4.43,1.51,6.35,6.35,0,0,0,4.83-1.91.31.31,0,0,1,.29-.12,6.82,6.82,0,0,0,1.07.08c3.15,0,5.7-2.13,5.7-4.75S25,16.17,21.82,16.17Z" transform="translate(-2.59 -3.59)"/><text class="cls-2" transform="translate(2.9 10.63)">web</text><text class="cls-3" transform="translate(2.63 20.84)">Train</text></svg>